<mxfile host="65bd71144e">
    <diagram id="kgpKYQtTHZ0yAKxKKP6v" name="Page-1">
        <mxGraphModel dx="970" dy="642" grid="1" gridSize="10" guides="1" tooltips="1" connect="1" arrows="1" fold="1" page="1" pageScale="1" pageWidth="850" pageHeight="1100" math="0" shadow="0">
            <root>
                <mxCell id="0"/>
                <mxCell id="1" parent="0"/>
                <mxCell id="3nuBFxr9cyL0pnOWT2aG-1" value="main" style="shape=umlLifeline;perimeter=lifelinePerimeter;container=1;collapsible=0;recursiveResize=0;rounded=0;shadow=0;strokeWidth=1;" parent="1" vertex="1">
                    <mxGeometry x="120" y="80" width="140" height="620" as="geometry"/>
                </mxCell>
                <mxCell id="3nuBFxr9cyL0pnOWT2aG-2" value="" style="points=[];perimeter=orthogonalPerimeter;rounded=0;shadow=0;strokeWidth=1;" parent="3nuBFxr9cyL0pnOWT2aG-1" vertex="1">
                    <mxGeometry x="65" y="70" width="10" height="520" as="geometry"/>
                </mxCell>
                <mxCell id="3nuBFxr9cyL0pnOWT2aG-5" value="Health" style="shape=umlLifeline;perimeter=lifelinePerimeter;container=1;collapsible=0;recursiveResize=0;rounded=0;shadow=0;strokeWidth=1;" parent="1" vertex="1">
                    <mxGeometry x="300" y="80" width="110" height="620" as="geometry"/>
                </mxCell>
                <mxCell id="qYyZ9x5dWhUnfHjNsUSw-17" value="" style="html=1;points=[];perimeter=orthogonalPerimeter;" parent="3nuBFxr9cyL0pnOWT2aG-5" vertex="1">
                    <mxGeometry x="50" y="60" width="10" height="50" as="geometry"/>
                </mxCell>
                <mxCell id="qYyZ9x5dWhUnfHjNsUSw-41" value="" style="html=1;points=[];perimeter=orthogonalPerimeter;" parent="3nuBFxr9cyL0pnOWT2aG-5" vertex="1">
                    <mxGeometry x="50" y="220" width="10" height="70" as="geometry"/>
                </mxCell>
                <mxCell id="qYyZ9x5dWhUnfHjNsUSw-43" value="" style="edgeStyle=orthogonalEdgeStyle;html=1;align=left;spacingLeft=2;endArrow=block;rounded=0;shadow=0;sketch=0;entryX=0.48;entryY=0.418;entryDx=0;entryDy=0;entryPerimeter=0;exitX=0.3;exitY=0.4;exitDx=0;exitDy=0;exitPerimeter=0;" parent="3nuBFxr9cyL0pnOWT2aG-5" edge="1">
                    <mxGeometry x="-0.1096" y="-20" relative="1" as="geometry">
                        <mxPoint x="48" y="240" as="sourcePoint"/>
                        <Array as="points">
                            <mxPoint x="22" y="240"/>
                            <mxPoint x="22" y="259"/>
                        </Array>
                        <mxPoint x="48" y="259.15999999999985" as="targetPoint"/>
                        <mxPoint x="20" y="-20" as="offset"/>
                    </mxGeometry>
                </mxCell>
                <mxCell id="qYyZ9x5dWhUnfHjNsUSw-56" value="" style="html=1;points=[];perimeter=orthogonalPerimeter;" parent="3nuBFxr9cyL0pnOWT2aG-5" vertex="1">
                    <mxGeometry x="50" y="390" width="10" height="50" as="geometry"/>
                </mxCell>
                <mxCell id="qYyZ9x5dWhUnfHjNsUSw-58" value="" style="html=1;points=[];perimeter=orthogonalPerimeter;" parent="3nuBFxr9cyL0pnOWT2aG-5" vertex="1">
                    <mxGeometry x="50" y="450" width="10" height="90" as="geometry"/>
                </mxCell>
                <mxCell id="qYyZ9x5dWhUnfHjNsUSw-7" value="BatteryMonitor" style="shape=umlLifeline;perimeter=lifelinePerimeter;container=1;collapsible=0;recursiveResize=0;rounded=0;shadow=0;strokeWidth=1;" parent="1" vertex="1">
                    <mxGeometry x="480" y="80" width="110" height="620" as="geometry"/>
                </mxCell>
                <mxCell id="qYyZ9x5dWhUnfHjNsUSw-25" value="" style="html=1;points=[];perimeter=orthogonalPerimeter;" parent="qYyZ9x5dWhUnfHjNsUSw-7" vertex="1">
                    <mxGeometry x="50" y="60" width="10" height="50" as="geometry"/>
                </mxCell>
                <mxCell id="qYyZ9x5dWhUnfHjNsUSw-26" value="&lt;font style=&quot;font-size: 13px&quot;&gt;init()&lt;/font&gt;" style="html=1;verticalAlign=bottom;startArrow=none;endArrow=block;startSize=8;startFill=0;" parent="qYyZ9x5dWhUnfHjNsUSw-7" target="qYyZ9x5dWhUnfHjNsUSw-25" edge="1">
                    <mxGeometry x="0.7059" relative="1" as="geometry">
                        <mxPoint x="-120" y="82" as="sourcePoint"/>
                        <mxPoint as="offset"/>
                    </mxGeometry>
                </mxCell>
                <mxCell id="qYyZ9x5dWhUnfHjNsUSw-30" value="&lt;font style=&quot;font-size: 13px&quot;&gt;查询所有psy节点&lt;br&gt;初始化&lt;br&gt;healthd_config&lt;/font&gt;" style="edgeStyle=orthogonalEdgeStyle;html=1;align=left;spacingLeft=2;endArrow=block;rounded=0;entryX=1;entryY=0;" parent="qYyZ9x5dWhUnfHjNsUSw-7" edge="1">
                    <mxGeometry relative="1" as="geometry">
                        <mxPoint x="60" y="75" as="sourcePoint"/>
                        <Array as="points">
                            <mxPoint x="85" y="75"/>
                        </Array>
                        <mxPoint x="65" y="95" as="targetPoint"/>
                    </mxGeometry>
                </mxCell>
                <mxCell id="qYyZ9x5dWhUnfHjNsUSw-65" value="" style="html=1;points=[];perimeter=orthogonalPerimeter;" parent="qYyZ9x5dWhUnfHjNsUSw-7" vertex="1">
                    <mxGeometry x="50" y="450" width="10" height="50" as="geometry"/>
                </mxCell>
                <mxCell id="qYyZ9x5dWhUnfHjNsUSw-9" value="HealthLoop" style="shape=umlLifeline;perimeter=lifelinePerimeter;container=1;collapsible=0;recursiveResize=0;rounded=0;shadow=0;strokeWidth=1;" parent="1" vertex="1">
                    <mxGeometry x="1060" y="80" width="130" height="620" as="geometry"/>
                </mxCell>
                <mxCell id="qYyZ9x5dWhUnfHjNsUSw-32" value="" style="html=1;points=[];perimeter=orthogonalPerimeter;" parent="qYyZ9x5dWhUnfHjNsUSw-9" vertex="1">
                    <mxGeometry x="60" y="150" width="10" height="150" as="geometry"/>
                </mxCell>
                <mxCell id="qYyZ9x5dWhUnfHjNsUSw-48" value="" style="html=1;points=[];perimeter=orthogonalPerimeter;" parent="qYyZ9x5dWhUnfHjNsUSw-9" vertex="1">
                    <mxGeometry x="60" y="330" width="10" height="270" as="geometry"/>
                </mxCell>
                <mxCell id="qYyZ9x5dWhUnfHjNsUSw-53" value="&lt;font style=&quot;font-size: 13px&quot;&gt;Uevent&lt;/font&gt;" style="html=1;verticalAlign=bottom;endArrow=blockThin;dashed=1;endSize=8;shadow=0;endFill=1;" parent="qYyZ9x5dWhUnfHjNsUSw-9" edge="1">
                    <mxGeometry relative="1" as="geometry">
                        <mxPoint x="150" y="400" as="sourcePoint"/>
                        <mxPoint x="70" y="400" as="targetPoint"/>
                    </mxGeometry>
                </mxCell>
                <mxCell id="qYyZ9x5dWhUnfHjNsUSw-11" value="BinderHealth" style="shape=umlLifeline;perimeter=lifelinePerimeter;container=1;collapsible=0;recursiveResize=0;rounded=0;shadow=0;strokeWidth=1;" parent="1" vertex="1">
                    <mxGeometry x="850" y="80" width="100" height="620" as="geometry"/>
                </mxCell>
                <mxCell id="qYyZ9x5dWhUnfHjNsUSw-36" value="" style="html=1;points=[];perimeter=orthogonalPerimeter;" parent="qYyZ9x5dWhUnfHjNsUSw-11" vertex="1">
                    <mxGeometry x="45" y="210" width="10" height="50" as="geometry"/>
                </mxCell>
                <mxCell id="qYyZ9x5dWhUnfHjNsUSw-75" value="" style="html=1;points=[];perimeter=orthogonalPerimeter;" parent="qYyZ9x5dWhUnfHjNsUSw-11" vertex="1">
                    <mxGeometry x="45" y="510" width="10" height="80" as="geometry"/>
                </mxCell>
                <mxCell id="qYyZ9x5dWhUnfHjNsUSw-13" value="HalHealthLoop" style="shape=umlLifeline;perimeter=lifelinePerimeter;container=1;collapsible=0;recursiveResize=0;rounded=0;shadow=0;strokeWidth=1;size=30;" parent="1" vertex="1">
                    <mxGeometry x="660" y="80" width="110" height="620" as="geometry"/>
                </mxCell>
                <mxCell id="qYyZ9x5dWhUnfHjNsUSw-38" value="" style="html=1;points=[];perimeter=orthogonalPerimeter;" parent="qYyZ9x5dWhUnfHjNsUSw-13" vertex="1">
                    <mxGeometry x="50" y="210" width="10" height="50" as="geometry"/>
                </mxCell>
                <mxCell id="qYyZ9x5dWhUnfHjNsUSw-55" value="" style="html=1;points=[];perimeter=orthogonalPerimeter;" parent="qYyZ9x5dWhUnfHjNsUSw-13" vertex="1">
                    <mxGeometry x="50" y="370" width="10" height="170" as="geometry"/>
                </mxCell>
                <mxCell id="qYyZ9x5dWhUnfHjNsUSw-18" value="&lt;font style=&quot;font-size: 13px&quot;&gt;构造函数Health()&lt;/font&gt;" style="html=1;verticalAlign=bottom;startArrow=none;endArrow=block;startSize=8;startFill=0;exitX=1;exitY=0.025;exitDx=0;exitDy=0;exitPerimeter=0;" parent="1" source="3nuBFxr9cyL0pnOWT2aG-2" target="qYyZ9x5dWhUnfHjNsUSw-17" edge="1">
                    <mxGeometry x="0.2258" y="3" relative="1" as="geometry">
                        <mxPoint x="180" y="160" as="sourcePoint"/>
                        <mxPoint as="offset"/>
                    </mxGeometry>
                </mxCell>
                <mxCell id="qYyZ9x5dWhUnfHjNsUSw-19" value="service.cpp" style="text;html=1;strokeColor=none;fillColor=none;align=center;verticalAlign=middle;whiteSpace=wrap;rounded=0;" parent="1" vertex="1">
                    <mxGeometry x="150" y="50" width="40" height="20" as="geometry"/>
                </mxCell>
                <mxCell id="qYyZ9x5dWhUnfHjNsUSw-20" value="继承于&lt;br&gt;IHealth" style="text;html=1;strokeColor=none;fillColor=none;align=center;verticalAlign=middle;whiteSpace=wrap;rounded=0;" parent="1" vertex="1">
                    <mxGeometry x="330" y="50" width="40" height="20" as="geometry"/>
                </mxCell>
                <mxCell id="qYyZ9x5dWhUnfHjNsUSw-31" value="继承于&lt;br&gt;HaIHealthLoop&lt;br&gt;&lt;div&gt;&lt;span&gt;IHealth&lt;/span&gt;&lt;/div&gt;" style="text;html=1;strokeColor=none;fillColor=none;align=center;verticalAlign=middle;whiteSpace=wrap;rounded=0;" parent="1" vertex="1">
                    <mxGeometry x="880" y="50" width="40" height="20" as="geometry"/>
                </mxCell>
                <mxCell id="qYyZ9x5dWhUnfHjNsUSw-33" value="&lt;span style=&quot;font-size: 13px&quot;&gt;StartLoop()&lt;/span&gt;" style="html=1;verticalAlign=bottom;startArrow=none;endArrow=block;startSize=8;startFill=0;exitX=1;exitY=0.156;exitDx=0;exitDy=0;exitPerimeter=0;" parent="1" source="3nuBFxr9cyL0pnOWT2aG-2" target="qYyZ9x5dWhUnfHjNsUSw-32" edge="1">
                    <mxGeometry x="0.9247" relative="1" as="geometry">
                        <mxPoint x="200" y="230" as="sourcePoint"/>
                        <mxPoint as="offset"/>
                    </mxGeometry>
                </mxCell>
                <mxCell id="qYyZ9x5dWhUnfHjNsUSw-39" value="&lt;font style=&quot;font-size: 13px&quot;&gt;HalHealthLoop::Init&lt;/font&gt;" style="html=1;verticalAlign=bottom;endArrow=none;startArrow=block;startFill=1;endFill=0;" parent="1" edge="1">
                    <mxGeometry x="-0.0751" width="80" relative="1" as="geometry">
                        <mxPoint x="720" y="300" as="sourcePoint"/>
                        <mxPoint x="893" y="300" as="targetPoint"/>
                        <mxPoint as="offset"/>
                    </mxGeometry>
                </mxCell>
                <mxCell id="qYyZ9x5dWhUnfHjNsUSw-40" value="&lt;font style=&quot;font-size: 13px&quot;&gt;getHealthConfig&lt;/font&gt;" style="html=1;verticalAlign=bottom;endArrow=none;startArrow=block;startFill=1;endFill=0;entryX=0.1;entryY=0.58;entryDx=0;entryDy=0;entryPerimeter=0;" parent="1" target="qYyZ9x5dWhUnfHjNsUSw-38" edge="1">
                    <mxGeometry x="-0.5335" width="80" relative="1" as="geometry">
                        <mxPoint x="360" y="320" as="sourcePoint"/>
                        <mxPoint x="703" y="320" as="targetPoint"/>
                        <mxPoint as="offset"/>
                    </mxGeometry>
                </mxCell>
                <mxCell id="qYyZ9x5dWhUnfHjNsUSw-35" value="&lt;font style=&quot;font-size: 13px&quot;&gt;BinderHealth::init&lt;/font&gt;" style="edgeStyle=orthogonalEdgeStyle;html=1;align=left;spacingLeft=2;endArrow=block;rounded=0;entryX=1.1;entryY=0.4;entryDx=0;entryDy=0;entryPerimeter=0;exitX=1.086;exitY=0.201;exitDx=0;exitDy=0;exitPerimeter=0;" parent="1" source="qYyZ9x5dWhUnfHjNsUSw-32" target="qYyZ9x5dWhUnfHjNsUSw-36" edge="1">
                    <mxGeometry x="0.9094" y="-10" relative="1" as="geometry">
                        <mxPoint x="1140" y="260" as="sourcePoint"/>
                        <Array as="points">
                            <mxPoint x="1150" y="260"/>
                            <mxPoint x="1150" y="310"/>
                        </Array>
                        <mxPoint x="1120" y="280" as="targetPoint"/>
                        <mxPoint as="offset"/>
                    </mxGeometry>
                </mxCell>
                <mxCell id="qYyZ9x5dWhUnfHjNsUSw-37" value="&lt;font&gt;&lt;span style=&quot;font-size: 13px&quot;&gt;InitInternal()&lt;/span&gt;&lt;br&gt;&lt;div&gt;&lt;span style=&quot;font-size: 13px&quot;&gt;&amp;nbsp;*WakeAlarmInit()&lt;/span&gt;&lt;span style=&quot;font-size: 13px&quot;&gt;&amp;nbsp; &amp;nbsp;*UeventInit()&lt;/span&gt;&lt;/div&gt;&lt;/font&gt;" style="text;html=1;strokeColor=none;fillColor=none;align=left;verticalAlign=middle;whiteSpace=wrap;rounded=0;" parent="1" vertex="1">
                    <mxGeometry x="1170" y="270" width="40" height="20" as="geometry"/>
                </mxCell>
                <mxCell id="qYyZ9x5dWhUnfHjNsUSw-47" value="" style="endArrow=classic;html=1;shadow=0;" parent="1" edge="1">
                    <mxGeometry width="50" height="50" relative="1" as="geometry">
                        <mxPoint x="362" y="360" as="sourcePoint"/>
                        <mxPoint x="1115" y="360" as="targetPoint"/>
                        <Array as="points">
                            <mxPoint x="513" y="360"/>
                        </Array>
                    </mxGeometry>
                </mxCell>
                <mxCell id="qYyZ9x5dWhUnfHjNsUSw-50" value="" style="edgeStyle=orthogonalEdgeStyle;html=1;align=left;spacingLeft=2;endArrow=block;rounded=0;shadow=0;" parent="1" edge="1">
                    <mxGeometry relative="1" as="geometry">
                        <mxPoint x="1130" y="359" as="sourcePoint"/>
                        <Array as="points">
                            <mxPoint x="1155" y="359"/>
                            <mxPoint x="1155" y="421"/>
                        </Array>
                        <mxPoint x="1133" y="421" as="targetPoint"/>
                    </mxGeometry>
                </mxCell>
                <mxCell id="qYyZ9x5dWhUnfHjNsUSw-51" value="MainLoop()&amp;nbsp; *epoll_wait()" style="text;html=1;strokeColor=none;fillColor=none;align=center;verticalAlign=middle;whiteSpace=wrap;rounded=0;" parent="1" vertex="1">
                    <mxGeometry x="1160" y="430" width="40" height="20" as="geometry"/>
                </mxCell>
                <mxCell id="qYyZ9x5dWhUnfHjNsUSw-54" value="&lt;font style=&quot;font-size: 13px&quot;&gt;UeventEvent&lt;/font&gt;" style="html=1;verticalAlign=bottom;endArrow=blockThin;dashed=1;endSize=8;shadow=0;endFill=1;exitX=-0.4;exitY=0.285;exitDx=0;exitDy=0;exitPerimeter=0;" parent="1" source="qYyZ9x5dWhUnfHjNsUSw-48" edge="1">
                    <mxGeometry x="-0.3508" relative="1" as="geometry">
                        <mxPoint x="1110" y="490" as="sourcePoint"/>
                        <mxPoint x="720" y="487" as="targetPoint"/>
                        <mxPoint as="offset"/>
                    </mxGeometry>
                </mxCell>
                <mxCell id="qYyZ9x5dWhUnfHjNsUSw-57" value="&lt;font style=&quot;font-size: 13px&quot;&gt;Haelth::update()&lt;/font&gt;" style="html=1;verticalAlign=bottom;endArrow=blockThin;dashed=1;endSize=8;shadow=0;endFill=1;" parent="1" edge="1">
                    <mxGeometry x="0.7059" relative="1" as="geometry">
                        <mxPoint x="700" y="490" as="sourcePoint"/>
                        <mxPoint x="360" y="490.05" as="targetPoint"/>
                        <mxPoint as="offset"/>
                    </mxGeometry>
                </mxCell>
                <mxCell id="qYyZ9x5dWhUnfHjNsUSw-61" value="" style="edgeStyle=orthogonalEdgeStyle;html=1;align=left;spacingLeft=2;endArrow=block;rounded=0;shadow=0;sketch=0;exitX=0.3;exitY=0.4;exitDx=0;exitDy=0;exitPerimeter=0;dashed=1;" parent="1" edge="1">
                    <mxGeometry x="-0.1096" y="-20" relative="1" as="geometry">
                        <mxPoint x="346" y="510" as="sourcePoint"/>
                        <Array as="points">
                            <mxPoint x="300" y="510"/>
                            <mxPoint x="300" y="550"/>
                            <mxPoint x="346" y="550"/>
                        </Array>
                        <mxPoint x="346" y="550" as="targetPoint"/>
                        <mxPoint x="20" y="-20" as="offset"/>
                    </mxGeometry>
                </mxCell>
                <mxCell id="qYyZ9x5dWhUnfHjNsUSw-62" value="getHealthInfo_2_1" style="text;html=1;strokeColor=none;fillColor=none;align=center;verticalAlign=middle;whiteSpace=wrap;rounded=0;" parent="1" vertex="1">
                    <mxGeometry x="270" y="490" width="40" height="20" as="geometry"/>
                </mxCell>
                <mxCell id="qYyZ9x5dWhUnfHjNsUSw-63" value="&lt;font style=&quot;font-size: 14px&quot;&gt;ScheduleBatteryUpdate()&lt;/font&gt;" style="text;html=1;strokeColor=none;fillColor=none;align=center;verticalAlign=middle;whiteSpace=wrap;rounded=0;" parent="1" vertex="1">
                    <mxGeometry x="780" y="460" width="40" height="20" as="geometry"/>
                </mxCell>
                <mxCell id="qYyZ9x5dWhUnfHjNsUSw-64" value="" style="endArrow=classic;html=1;shadow=0;dashed=1;" parent="1" edge="1">
                    <mxGeometry width="50" height="50" relative="1" as="geometry">
                        <mxPoint x="360" y="540" as="sourcePoint"/>
                        <mxPoint x="530" y="540" as="targetPoint"/>
                    </mxGeometry>
                </mxCell>
                <mxCell id="qYyZ9x5dWhUnfHjNsUSw-67" value="" style="edgeStyle=orthogonalEdgeStyle;html=1;align=left;spacingLeft=2;endArrow=block;rounded=0;shadow=0;dashed=1;" parent="1" target="qYyZ9x5dWhUnfHjNsUSw-65" edge="1">
                    <mxGeometry relative="1" as="geometry">
                        <mxPoint x="540" y="540" as="sourcePoint"/>
                        <Array as="points">
                            <mxPoint x="565" y="540"/>
                            <mxPoint x="565" y="560"/>
                        </Array>
                        <mxPoint x="543" y="602" as="targetPoint"/>
                    </mxGeometry>
                </mxCell>
                <mxCell id="qYyZ9x5dWhUnfHjNsUSw-69" value="&lt;font color=&quot;#ff0000&quot;&gt;遍历psy属性节点&lt;/font&gt;" style="text;html=1;strokeColor=none;fillColor=none;align=center;verticalAlign=middle;whiteSpace=wrap;rounded=0;" parent="1" vertex="1">
                    <mxGeometry x="560" y="510" width="50" height="20" as="geometry"/>
                </mxCell>
                <mxCell id="qYyZ9x5dWhUnfHjNsUSw-70" value="&lt;font style=&quot;font-size: 13px&quot;&gt;再一次调用该接口&lt;br&gt;获取health_info&lt;br&gt;&lt;/font&gt;" style="html=1;verticalAlign=bottom;endArrow=blockThin;dashed=1;endSize=8;shadow=0;endFill=1;" parent="1" edge="1">
                    <mxGeometry x="-0.6176" relative="1" as="geometry">
                        <mxPoint x="705" y="590" as="sourcePoint"/>
                        <mxPoint x="365" y="590.05" as="targetPoint"/>
                        <mxPoint as="offset"/>
                    </mxGeometry>
                </mxCell>
                <mxCell id="qYyZ9x5dWhUnfHjNsUSw-71" value="&lt;font style=&quot;font-size: 13px&quot;&gt;&lt;br&gt;&lt;/font&gt;" style="html=1;verticalAlign=bottom;endArrow=none;dashed=1;endSize=8;shadow=0;endFill=0;startArrow=block;startFill=1;" parent="1" edge="1">
                    <mxGeometry x="-0.6176" relative="1" as="geometry">
                        <mxPoint x="705" y="608" as="sourcePoint"/>
                        <mxPoint x="365" y="608.05" as="targetPoint"/>
                        <mxPoint as="offset"/>
                    </mxGeometry>
                </mxCell>
                <mxCell id="qYyZ9x5dWhUnfHjNsUSw-72" value="" style="endArrow=classic;html=1;shadow=0;dashed=1;exitX=1.5;exitY=0.935;exitDx=0;exitDy=0;exitPerimeter=0;" parent="1" source="qYyZ9x5dWhUnfHjNsUSw-55" edge="1">
                    <mxGeometry width="50" height="50" relative="1" as="geometry">
                        <mxPoint x="740" y="630" as="sourcePoint"/>
                        <mxPoint x="890" y="609" as="targetPoint"/>
                    </mxGeometry>
                </mxCell>
                <mxCell id="qYyZ9x5dWhUnfHjNsUSw-76" value="OnHealthInfoCharged" style="text;html=1;strokeColor=none;fillColor=none;align=center;verticalAlign=middle;whiteSpace=wrap;rounded=0;" parent="1" vertex="1">
                    <mxGeometry x="800" y="580" width="40" height="20" as="geometry"/>
                </mxCell>
                <mxCell id="qYyZ9x5dWhUnfHjNsUSw-77" value="" style="edgeStyle=orthogonalEdgeStyle;html=1;align=left;spacingLeft=2;endArrow=block;rounded=0;shadow=0;sketch=0;exitX=0.3;exitY=0.4;exitDx=0;exitDy=0;exitPerimeter=0;dashed=1;" parent="1" edge="1">
                    <mxGeometry x="-0.1096" y="-20" relative="1" as="geometry">
                        <mxPoint x="890" y="620" as="sourcePoint"/>
                        <Array as="points">
                            <mxPoint x="844" y="620"/>
                            <mxPoint x="844" y="660"/>
                            <mxPoint x="890" y="660"/>
                        </Array>
                        <mxPoint x="890" y="660" as="targetPoint"/>
                        <mxPoint x="20" y="-20" as="offset"/>
                    </mxGeometry>
                </mxCell>
                <mxCell id="qYyZ9x5dWhUnfHjNsUSw-78" value="调度注册好的IHealthInfoCallback通知framework" style="text;html=1;strokeColor=none;fillColor=none;align=center;verticalAlign=middle;whiteSpace=wrap;rounded=0;" parent="1" vertex="1">
                    <mxGeometry x="780" y="660" width="40" height="30" as="geometry"/>
                </mxCell>
                <mxCell id="qYyZ9x5dWhUnfHjNsUSw-79" value="" style="endArrow=classic;html=1;shadow=0;dashed=1;exitX=1.3;exitY=0.888;exitDx=0;exitDy=0;exitPerimeter=0;" parent="1" source="qYyZ9x5dWhUnfHjNsUSw-75" edge="1">
                    <mxGeometry width="50" height="50" relative="1" as="geometry">
                        <mxPoint x="920" y="660" as="sourcePoint"/>
                        <mxPoint x="1120" y="661" as="targetPoint"/>
                    </mxGeometry>
                </mxCell>
                <mxCell id="qYyZ9x5dWhUnfHjNsUSw-66" value="&lt;br&gt;&lt;div&gt;&amp;nbsp;BatteryMonitor::&lt;/div&gt;&lt;div&gt;&amp;nbsp;logValues打印&lt;/div&gt;BatteryMonitor::&lt;br&gt;updateValues()" style="text;html=1;strokeColor=none;fillColor=none;align=center;verticalAlign=middle;whiteSpace=wrap;rounded=0;" parent="1" vertex="1">
                    <mxGeometry x="410" y="500" width="120" height="20" as="geometry"/>
                </mxCell>
            </root>
        </mxGraphModel>
    </diagram>
</mxfile>